<?xml version="1.0" encoding="utf-8" ?>
<svg xmlns="http://www.w3.org/2000/svg" xmlns:xlink="http://www.w3.org/1999/xlink" width="242" height="242">
	<path transform="scale(0.472422 0.472422)" d="M263.358 437.097C160.82 441.147 74.4141 361.307 70.3629 258.769C66.3117 156.232 146.15 69.8237 248.687 65.7705C351.228 61.7172 437.638 141.558 441.69 244.098C445.741 346.639 365.899 433.048 263.358 437.097ZM250.98 92.0217C206.754 95.0128 167.319 112.069 138.081 145.58C86.7523 204.408 83.9658 289.331 131.457 351.088C133.049 348.12 134.45 345.057 136.044 342.091C160.971 295.703 209.026 270.404 261.55 271.572C312.188 274.434 360.599 303.231 379.923 351.088C405.936 319.491 418.415 276.803 414.487 236.205C406.669 155.423 332.508 87.3612 250.98 92.0217Z"/>
	<path transform="scale(0.472422 0.472422)" d="M259.633 260.277C223.232 262.347 192.076 234.452 190.124 198.045C188.173 161.638 216.17 130.573 252.583 128.74C288.828 126.916 319.72 154.756 321.662 190.995C323.604 227.235 295.866 258.217 259.633 260.277Z"/>
</svg>
