<?xml version="1.0" encoding="utf-8" ?>
<svg xmlns="http://www.w3.org/2000/svg" xmlns:xlink="http://www.w3.org/1999/xlink" width="242" height="242">
	<path transform="scale(0.472422 0.472422)" d="M260.616 437.294C157.935 439.921 72.5967 358.75 70.0847 256.066C67.5727 153.383 148.84 68.1355 251.526 65.739C354.05 63.3462 439.132 144.456 441.64 246.977C444.148 349.497 363.134 434.671 260.616 437.294ZM248.001 85.5025C237.519 86.4663 227.129 87.7049 216.882 90.1956C137.611 109.464 83.1604 183.61 90.9504 265.345C94.516 302.755 108.25 333.219 132.206 361.501C134.226 363.886 136.46 366.171 138.327 368.674C149.306 338.838 172.329 311.974 201.425 298.592C213.073 293.235 230.568 287.161 243.431 287.014C239.267 286.099 235.089 285.201 231.066 283.767C159.091 258.112 171.01 145.246 253.597 141.637C257.586 141.463 261.583 141.678 265.574 141.711C270.568 142.95 275.684 143.885 280.539 145.609C314.835 157.792 335.812 196.262 327.035 231.665C319.48 262.139 296.954 280.279 267.563 287.014C317.486 290.479 355.182 323.647 373.421 368.674C406.642 331.223 424.904 293.503 421.737 241.255C416.304 151.636 337.557 81.3109 248.001 85.5025ZM252.835 161.653C223.601 163.339 201.264 188.396 202.932 217.631C204.6 246.866 229.642 269.22 258.879 267.57C288.141 265.92 310.519 240.85 308.85 211.588C307.18 182.326 282.096 159.964 252.835 161.653ZM250.349 306.243C225.582 309.063 205.344 315.513 186.173 332.7C168.03 348.967 162.75 360.7 154.867 382.149C188.131 406.989 220.216 418.027 261.851 417.717C300.695 414.887 325.18 405.078 357.591 382.149C343.122 335.758 299.045 303.582 250.349 306.243Z"/>
</svg>
