<?xml version="1.0" encoding="utf-8" ?>
<svg xmlns="http://www.w3.org/2000/svg" xmlns:xlink="http://www.w3.org/1999/xlink" width="242" height="242">
	<path fill="#E1E1E1" transform="scale(0.236211 0.236211)" d="M0 0L1024 0L1024 1024L0 1024L0 0ZM879.019 382.54C861.629 387.571 851.779 404.501 843.505 419.472C836.398 432.331 830.899 446.299 826.032 460.139C821.862 471.996 819.578 490.274 811.861 499.784C788.817 502.495 765.431 517.476 751.175 535.541C742.828 546.118 739.021 556.539 736.433 569.621L735.869 570.017C729.674 574.41 718.283 587.307 710.161 585.709C709.349 585.549 708.676 585.074 708.18 584.401C704.395 579.26 710.958 557.468 712.981 550.924C715.716 542.079 723.983 524.601 724.998 517.127C725.316 514.781 725.115 512.015 724.058 509.864C723.338 508.399 722.078 507.128 720.456 506.714C718.538 506.224 716.887 506.765 715.255 507.781C712.846 509.281 710.659 511.642 708.59 513.591C708.548 508.983 708.295 504.275 704.7 500.884C701.477 497.844 696.767 497.042 692.495 497.341C679.552 498.25 666.184 506.068 656.505 514.263C644.461 524.461 636.7 541.127 619.073 542.322C616.203 542.516 612.384 542.085 610.154 540.06C608.633 538.679 608.11 536.929 608.067 534.922C607.974 530.677 609.28 526.06 610.852 522.149C613.403 515.804 620.913 505.372 614.349 499.246C611.999 497.052 607.956 495.959 604.795 496.142C592.539 496.853 578.164 514.647 570.56 523.713C566.274 528.773 562.252 534.051 558.51 539.526C560.659 532.493 563.249 525.602 566.265 518.896C568.259 514.412 570.908 509.825 572.281 505.13C572.759 503.495 573.141 501.7 572.34 500.094C571.448 498.308 569.749 497.313 567.879 496.807C564.791 495.971 561.584 496.616 558.86 498.221C543.062 507.528 534.901 542.082 530.383 559.104C521.061 566.244 506.651 580.278 494.099 578.53C490.531 578.033 487.384 576.267 485.287 573.313C478.308 563.488 481.277 539.767 483.584 528.373C484.114 525.755 484.793 523.072 486.004 520.677C488.874 515.002 497.49 503.041 501.494 497.164C520.386 498.979 539.507 498.236 554.7 485.23C557.216 483.077 559.237 479.355 559.451 476.027C559.549 474.497 559.251 473.405 558.186 472.261C555.476 470.844 553.393 471.829 550.685 472.679C540.543 475.862 528.668 478.695 518.027 476.38C530.538 455.478 544.857 424.914 538.175 399.996C537.276 396.647 535.516 393.437 532.418 391.665C529.186 389.816 525.511 390.188 522.088 391.29C505.163 396.742 492.111 420.863 484.708 436.034C478.791 448.159 475.052 461.252 469.247 473.324C459.652 472.97 441.866 468.014 434.42 475.027C432.276 477.046 430.184 480.58 430.065 483.584C430.002 485.201 430.584 486.636 431.712 487.771C436.092 492.178 456.842 492.413 463.81 493.34C462.594 501.276 460.861 509.12 459.741 517.072C457.947 529.805 457.57 542.375 457.954 555.212C444.403 567.319 413.433 584.367 395.087 583.175C391.242 582.925 387.343 581.416 384.847 578.378C383.893 577.217 383.21 575.941 382.54 574.604C403.493 564.278 434.27 550.925 442.285 527.085C444.332 520.996 444.911 514.197 442.026 508.26C439.595 503.258 434.941 499.84 429.753 498.08C419.587 494.631 408.247 498.002 399.078 502.755C379.859 512.719 364.757 531.48 358.428 552.134C357.025 556.711 356.304 561.308 355.71 566.048C349.115 573.201 339.719 581.122 329.44 581.393C326.696 581.465 324.412 580.706 322.428 578.765C318.823 575.239 317.192 568.708 317.215 563.761C317.229 560.911 318.048 558.512 319.359 556.007C322.88 549.277 328.417 543.081 332.916 536.929C339.239 528.28 345.23 519.291 351.009 510.267C361.959 493.168 411.15 412.485 394.456 394.821C392.34 392.581 389.295 391.547 386.26 391.543C375.543 391.526 364.758 401.933 357.943 409.145C348.341 419.304 340.408 430.948 332.92 442.71C317.586 469.106 307.155 494.114 300.692 523.971C291.845 510.234 281.407 498.757 264.768 495.191C251.193 492.281 237.374 495.833 225.912 503.346C207.954 515.117 193.956 535.399 189.752 556.492C187.339 568.601 187.232 583.03 194.556 593.595C199.494 600.718 207.083 605.351 215.582 606.857C227.549 608.977 240.125 604.581 249.801 597.653C265.316 586.543 275.619 568.895 278.677 550.191C280.173 541.044 280.195 532.199 278.305 523.122C286.614 530.874 293.321 541.058 293.778 552.756C293.98 557.92 293.472 563.091 293.639 568.253C293.957 578.078 296.975 590.622 304.273 597.655C309.852 603.031 317.575 605.074 325.162 604.762C338.22 604.226 349.547 597.142 360.093 590.105C366.564 598.668 374.699 604.036 385.438 605.595C411.522 609.382 440.819 591.218 460.958 575.998C463.975 585.967 467.961 595.111 477.682 600.193C485.288 604.17 493.746 604.186 501.742 601.577C510.931 598.579 518.301 592.875 525.556 586.7C525.287 592.435 524.546 599.547 528.715 604.166C530.454 606.093 532.878 607.394 535.501 607.44C539.005 607.502 542.41 605.51 544.762 603.037C550.588 596.911 553.398 587.012 556.52 579.315C562.469 564.65 572.626 543.794 584.972 533.864C585.026 543.779 584.672 555.188 592.367 562.7C596.983 567.207 603.52 568.826 609.817 568.649C614.604 568.515 619.094 567.36 623.673 566.05C622.441 577.078 621.513 589.002 628.791 598.331C632.865 603.553 638.742 606.185 645.239 606.822C657.016 607.978 668.743 602.018 677.454 594.575C680.2 592.229 682.847 589.754 685.506 587.31C687.577 593.94 689.797 599.86 696.295 603.394C703.17 607.133 712.391 606.758 719.674 604.395C726.897 602.052 732.421 597.729 738.014 592.739C740.859 598.63 743.81 603.135 750.359 605.343C761.318 609.037 775.488 603.796 785.178 598.692C793.841 594.128 801.281 588.163 808.012 581.085C812.032 590.842 816.205 600.289 826.635 604.654C834.327 607.873 842.878 606.347 850.297 603.162C857.985 599.863 864.725 595.032 870.974 589.529C875.486 597.478 880.557 603.21 889.703 605.787C907.738 610.868 928.674 602.499 944.11 593.666C954.834 587.529 973.774 574.676 977.268 562.133C977.845 560.061 977.504 557.677 976.276 555.891C975.32 554.502 973.976 553.621 972.279 553.416C970.588 553.211 969.236 553.803 967.81 554.622C962.473 557.687 957.6 562.089 952.472 565.548C940.944 573.325 908.665 592.92 896.371 580.199C894.389 578.148 893.281 575.475 892.418 572.801C913.78 565.103 941.61 553.236 951.985 531.495C954.703 525.799 956.098 518.919 954.064 512.784C952.283 507.411 947.605 502.802 942.534 500.455C934.679 496.819 924.415 498.28 916.618 501.346C898.051 508.648 881.354 525.969 873.486 544.154C870.179 551.8 868.686 559.665 867.644 567.888C861.38 573.314 850.898 582.026 842.02 581.41C839.39 581.227 837.093 579.858 835.409 577.871C831.615 573.394 830.088 565.111 830.668 559.355C830.919 556.864 831.843 554.584 833.02 552.395C836.3 546.297 840.752 540.653 844.488 534.808C849.686 526.676 854.381 518.111 858.939 509.603C869.689 489.537 906.378 406.024 891.121 386.779C889.248 384.42 886.525 382.889 883.537 382.515C882.063 382.339 880.498 382.463 879.019 382.54ZM208.302 387.213C181.561 388.957 147.98 399.506 129.779 420.026C120.383 430.619 116.253 443.011 117.208 457.119C117.808 465.986 120.599 474.801 123.875 483.012C132.718 505.178 157.789 545.848 139.396 567.759C132.665 575.777 121.526 579.568 111.344 580.203C103.168 580.712 94.843 578.526 88.5806 573.092C83.6917 568.85 80.858 563.256 80.551 556.769C79.7394 539.618 104.64 517.846 95.1074 509.15C92.7198 506.971 88.3648 506.114 85.2279 506.394C74.7044 507.334 62.328 518.786 56.0086 526.744C47.2218 537.808 43.9313 551.305 45.6304 565.244C47.1932 578.064 53.5134 589.986 63.734 597.948C71.2498 603.803 79.5801 607.076 88.7142 609.484C111.277 613.595 134.331 610.579 153.574 597.431C166.307 588.753 175.021 575.324 177.757 560.159C183.34 530.094 170.227 502.531 158.406 475.86C155.097 468.391 150.806 460.081 150.604 451.754C150.369 442.124 156.862 433.768 164.383 428.487C175.182 420.903 193.934 414.368 207.251 416.86C210.223 417.416 213.83 419.037 215.41 421.769C216.866 424.286 216.471 427.916 215.562 430.543C213.394 436.815 207.918 442.709 203.054 447.052C197.799 451.742 181.445 460.718 185.518 469.189C187.026 472.325 191.184 475.28 194.495 476.17C201.681 478.102 209.132 476.432 215.337 472.55C229.022 463.989 243.951 442.481 247.507 426.735C249.399 418.352 248.568 408.986 243.758 401.683C238.623 393.886 230.569 390.017 221.669 388.236C217.325 387.366 212.728 386.987 208.302 387.213Z"/>
	<path transform="scale(0.236211 0.236211)" d="M811.861 499.784C819.578 490.274 821.862 471.996 826.032 460.139C830.899 446.299 836.398 432.331 843.505 419.472C851.779 404.501 861.629 387.571 879.019 382.54C880.498 382.463 882.063 382.339 883.537 382.515C886.525 382.889 889.248 384.42 891.121 386.779C906.378 406.024 869.689 489.537 858.939 509.603C854.381 518.111 849.686 526.676 844.488 534.808C840.752 540.653 836.3 546.297 833.02 552.395C831.843 554.584 830.919 556.864 830.668 559.355C830.088 565.111 831.615 573.394 835.409 577.871C837.093 579.858 839.39 581.227 842.02 581.41C850.898 582.026 861.38 573.314 867.644 567.888C868.686 559.665 870.179 551.8 873.486 544.154C881.354 525.969 898.051 508.648 916.618 501.346C924.415 498.28 934.679 496.819 942.534 500.455C947.605 502.802 952.283 507.411 954.064 512.784C956.098 518.919 954.703 525.799 951.985 531.495C941.61 553.236 913.78 565.103 892.418 572.801C893.281 575.475 894.389 578.148 896.371 580.199C908.665 592.92 940.944 573.325 952.472 565.548C957.6 562.089 962.473 557.687 967.81 554.622C969.236 553.803 970.588 553.211 972.279 553.416C973.976 553.621 975.32 554.502 976.276 555.891C977.504 557.677 977.845 560.061 977.268 562.133C973.774 574.676 954.834 587.529 944.11 593.666C928.674 602.499 907.738 610.868 889.703 605.787C880.557 603.21 875.486 597.478 870.974 589.529C864.725 595.032 857.985 599.863 850.297 603.162C842.878 606.347 834.327 607.873 826.635 604.654C816.205 600.289 812.032 590.842 808.012 581.085C801.281 588.163 793.841 594.128 785.178 598.692C775.488 603.796 761.318 609.037 750.359 605.343C743.81 603.135 740.859 598.63 738.014 592.739C732.421 597.729 726.897 602.052 719.674 604.395C712.391 606.758 703.17 607.133 696.295 603.394C689.797 599.86 687.577 593.94 685.506 587.31C682.847 589.754 680.2 592.229 677.454 594.575C668.743 602.018 657.016 607.978 645.239 606.822C638.742 606.185 632.865 603.553 628.791 598.331C621.513 589.002 622.441 577.078 623.673 566.05C619.094 567.36 614.604 568.515 609.817 568.649C603.52 568.826 596.983 567.207 592.367 562.7C584.672 555.188 585.026 543.779 584.972 533.864C572.626 543.794 562.469 564.65 556.52 579.315C553.398 587.012 550.588 596.911 544.762 603.037C542.41 605.51 539.005 607.502 535.501 607.44C532.878 607.394 530.454 606.093 528.715 604.166C524.546 599.547 525.287 592.435 525.556 586.7C518.301 592.875 510.931 598.579 501.742 601.577C493.746 604.186 485.288 604.17 477.682 600.193C467.961 595.111 463.975 585.967 460.958 575.998C440.819 591.218 411.522 609.382 385.438 605.595C374.699 604.036 366.564 598.668 360.093 590.105C349.547 597.142 338.22 604.226 325.162 604.762C317.575 605.074 309.852 603.031 304.273 597.655C296.975 590.622 293.957 578.078 293.639 568.253C293.472 563.091 293.98 557.92 293.778 552.756C293.321 541.058 286.614 530.874 278.305 523.122C280.195 532.199 280.173 541.044 278.677 550.191C275.619 568.895 265.316 586.543 249.801 597.653C240.125 604.581 227.549 608.977 215.582 606.857C207.083 605.351 199.494 600.718 194.556 593.595C187.232 583.03 187.339 568.601 189.752 556.492C193.956 535.399 207.954 515.117 225.912 503.346C237.374 495.833 251.193 492.281 264.768 495.191C281.407 498.757 291.845 510.234 300.692 523.971C307.155 494.114 317.586 469.106 332.92 442.71C340.408 430.948 348.341 419.304 357.943 409.145C364.758 401.933 375.543 391.526 386.26 391.543C389.295 391.547 392.34 392.581 394.456 394.821C411.15 412.485 361.959 493.168 351.009 510.267C345.23 519.291 339.239 528.28 332.916 536.929C328.417 543.081 322.88 549.277 319.359 556.007C318.048 558.512 317.229 560.911 317.215 563.761C317.192 568.708 318.823 575.239 322.428 578.765C324.412 580.706 326.696 581.465 329.44 581.393C339.719 581.122 349.115 573.201 355.71 566.048C356.304 561.308 357.025 556.711 358.428 552.134C364.757 531.48 379.859 512.719 399.078 502.755C408.247 498.002 419.587 494.631 429.753 498.08C434.941 499.84 439.595 503.258 442.026 508.26C444.911 514.197 444.332 520.996 442.285 527.085C434.27 550.925 403.493 564.278 382.54 574.604C383.21 575.941 383.893 577.217 384.847 578.378C387.343 581.416 391.242 582.925 395.087 583.175C413.433 584.367 444.403 567.319 457.954 555.212C457.57 542.375 457.947 529.805 459.741 517.072C460.861 509.12 462.594 501.276 463.81 493.34C456.842 492.413 436.092 492.178 431.712 487.771C430.584 486.636 430.002 485.201 430.065 483.584C430.184 480.58 432.276 477.046 434.42 475.027C441.866 468.014 459.652 472.97 469.247 473.324C475.052 461.252 478.791 448.159 484.708 436.034C492.111 420.863 505.163 396.742 522.088 391.29C525.511 390.188 529.186 389.816 532.418 391.665C535.516 393.437 537.276 396.647 538.175 399.996C544.857 424.914 530.538 455.478 518.027 476.38C528.668 478.695 540.543 475.862 550.685 472.679C553.393 471.829 555.476 470.844 558.186 472.261C559.251 473.405 559.549 474.497 559.451 476.027C559.237 479.355 557.216 483.077 554.7 485.23C539.507 498.236 520.386 498.979 501.494 497.164C497.49 503.041 488.874 515.002 486.004 520.677C484.793 523.072 484.114 525.755 483.584 528.373C481.277 539.767 478.308 563.488 485.287 573.313C487.384 576.267 490.531 578.033 494.099 578.53C506.651 580.278 521.061 566.244 530.383 559.104C534.901 542.082 543.062 507.528 558.86 498.221C561.584 496.616 564.791 495.971 567.879 496.807C569.749 497.313 571.448 498.308 572.34 500.094C573.141 501.7 572.759 503.495 572.281 505.13C570.908 509.825 568.259 514.412 566.265 518.896C563.249 525.602 560.659 532.493 558.51 539.526C562.252 534.051 566.274 528.773 570.56 523.713C578.164 514.647 592.539 496.853 604.795 496.142C607.956 495.959 611.999 497.052 614.349 499.246C620.913 505.372 613.403 515.804 610.852 522.149C609.28 526.06 607.974 530.677 608.067 534.922C608.11 536.929 608.633 538.679 610.154 540.06C612.384 542.085 616.203 542.516 619.073 542.322C636.7 541.127 644.461 524.461 656.505 514.263C666.184 506.068 679.552 498.25 692.495 497.341C696.767 497.042 701.477 497.844 704.7 500.884C708.295 504.275 708.548 508.983 708.59 513.591C710.659 511.642 712.846 509.281 715.255 507.781C716.887 506.765 718.538 506.224 720.456 506.714C722.078 507.128 723.338 508.399 724.058 509.864C725.115 512.015 725.316 514.781 724.998 517.127C723.983 524.601 715.716 542.079 712.981 550.924C710.958 557.468 704.395 579.26 708.18 584.401C708.676 585.074 709.349 585.549 710.161 585.709C718.283 587.307 729.674 574.41 735.869 570.017L736.433 569.621C739.021 556.539 742.828 546.118 751.175 535.541C765.431 517.476 788.817 502.495 811.861 499.784ZM874.256 407.308C855.051 429.314 840.94 481.404 835.366 509.964C834.702 513.368 832.56 521.069 832.678 524.103C832.688 524.379 832.811 524.64 832.878 524.909L833.419 524.845C839.913 515.842 844.886 505.064 849.46 494.964C859.203 473.447 867.336 451.982 872.801 428.95C874.203 423.045 876.55 415.315 875.428 409.276C875.211 408.107 875.024 408.117 874.256 407.308ZM519.191 415.858C504.465 427.897 496.155 455.804 491.914 474.02L492.161 474.941L492.746 475.026C506.429 466.936 515.322 447.084 519.072 432.243C520.099 428.178 521.921 420.67 520 416.717C519.744 416.191 519.647 416.203 519.191 415.858ZM373.522 421.944C353.466 436.96 339.34 471.535 330.762 494.686C328.294 501.348 324.719 509.79 324.16 516.817C324.104 517.532 324.135 517.598 324.207 518.21C324.977 518.092 324.686 518.272 325.131 517.761C342.231 492.64 358.413 466.965 370.731 439.109C372.352 435.445 376.058 428.564 375.318 424.511C375.093 423.28 374.477 422.658 373.522 421.944ZM248.813 512.131C238.62 513.865 231.189 522.017 225.501 530.101C217.789 541.06 210.92 556.853 213.369 570.584C213.999 574.115 215.714 577.083 218.759 579.047C220.846 580.393 223.26 580.73 225.682 580.978C235.487 579.681 242.53 574.759 248.455 566.988C256.515 556.419 263.441 539.252 261.365 525.744C260.656 521.13 258.956 516.807 255.028 514.029C253.023 512.611 251.222 512.278 248.813 512.131ZM690.339 516.076C675.976 520.471 664.769 534.631 657.935 547.378C653.644 555.381 647.365 571.696 650.058 580.772C650.708 582.963 652.054 584.763 654.077 585.855C655.803 586.787 657.602 586.64 659.503 586.566C670.965 582.959 678.032 573.782 683.442 563.507C685.626 559.359 700.532 522.044 699.923 519.02C699.752 518.172 698.819 517.453 698.086 517.097C695.732 515.952 692.897 515.874 690.339 516.076ZM416.443 516.602C404.205 519.767 396.81 528.434 390.576 538.986C387.317 544.503 384.543 550.382 382.887 556.59C385.524 555.631 388.219 554.748 390.764 553.565C401.322 548.347 419.432 537.744 423.609 525.948C424.299 523.998 424.671 521.262 423.705 519.328C423.038 517.994 422.17 517.273 420.741 516.889C419.355 516.517 417.867 516.582 416.443 516.602ZM808.118 517.42C790.313 524.246 772.536 541.177 764.83 558.642C762.324 564.323 760.722 571.23 763.25 577.173C764.025 578.997 765.327 580.235 766.766 581.548C770.838 583.732 774.439 584.057 778.91 582.762C787.37 580.31 799.709 572.99 803.932 565.015C805.153 562.709 805.836 560.202 806.226 557.631C807.33 550.363 807.287 542.759 807.995 535.424C808.477 530.434 810.5 522.85 809.998 518.243L809.465 517.51L808.118 517.42ZM926.917 517.6C915.84 520.128 907.65 527.839 901.707 537.268C897.639 543.731 894.634 550.805 892.808 558.22C895.183 557.216 897.55 556.255 899.798 554.985C909.638 549.533 932.219 536.966 935.217 526.285C935.752 524.38 935.578 522.539 934.541 520.834C933.51 519.141 932.141 518.028 930.156 517.664C929.059 517.463 928.023 517.523 926.917 517.6Z"/>
	<path transform="scale(0.236211 0.236211)" d="M88.7142 609.484C79.5801 607.076 71.2498 603.803 63.734 597.948C53.5134 589.986 47.1932 578.064 45.6304 565.244C43.9313 551.305 47.2218 537.808 56.0086 526.744C62.328 518.786 74.7044 507.334 85.2279 506.394C88.3648 506.114 92.7198 506.971 95.1074 509.15C104.64 517.846 79.7394 539.618 80.551 556.769C80.858 563.256 83.6917 568.85 88.5806 573.092C94.843 578.526 103.168 580.712 111.344 580.203C121.526 579.568 132.665 575.777 139.396 567.759C157.789 545.848 132.718 505.178 123.875 483.012C120.599 474.801 117.808 465.986 117.208 457.119C116.253 443.011 120.383 430.619 129.779 420.026C147.98 399.506 181.561 388.957 208.302 387.213C212.728 386.987 217.325 387.366 221.669 388.236C230.569 390.017 238.623 393.886 243.758 401.683C248.568 408.986 249.399 418.352 247.507 426.735C243.951 442.481 229.022 463.989 215.337 472.55C209.132 476.432 201.681 478.102 194.495 476.17C191.184 475.28 187.026 472.325 185.518 469.189C181.445 460.718 197.799 451.742 203.054 447.052C207.918 442.709 213.394 436.815 215.562 430.543C216.471 427.916 216.866 424.286 215.41 421.769C213.83 419.037 210.223 417.416 207.251 416.86C193.934 414.368 175.182 420.903 164.383 428.487C156.862 433.768 150.369 442.124 150.604 451.754C150.806 460.081 155.097 468.391 158.406 475.86C170.227 502.531 183.34 530.094 177.757 560.159C175.021 575.324 166.307 588.753 153.574 597.431C134.331 610.579 111.277 613.595 88.7142 609.484Z"/>
	<path fill="#E1E1E1" transform="scale(0.236211 0.236211)" d="M833.419 524.845L832.878 524.909C832.811 524.64 832.688 524.379 832.678 524.103C832.56 521.069 834.702 513.368 835.366 509.964C840.94 481.404 855.051 429.314 874.256 407.308C875.024 408.117 875.211 408.107 875.428 409.276C876.55 415.315 874.203 423.045 872.801 428.95C867.336 451.982 859.203 473.447 849.46 494.964C844.886 505.064 839.913 515.842 833.419 524.845Z"/>
	<path fill="#E1E1E1" transform="scale(0.236211 0.236211)" d="M492.746 475.026L492.161 474.941L491.914 474.02C496.155 455.804 504.465 427.897 519.191 415.858C519.647 416.203 519.744 416.191 520 416.717C521.921 420.67 520.099 428.178 519.072 432.243C515.322 447.084 506.429 466.936 492.746 475.026Z"/>
	<path fill="#E1E1E1" transform="scale(0.236211 0.236211)" d="M325.131 517.761C324.686 518.272 324.977 518.092 324.207 518.21C324.135 517.598 324.104 517.532 324.16 516.817C324.719 509.79 328.294 501.348 330.762 494.686C339.34 471.535 353.466 436.96 373.522 421.944C374.477 422.658 375.093 423.28 375.318 424.511C376.058 428.564 372.352 435.445 370.731 439.109C358.413 466.965 342.231 492.64 325.131 517.761Z"/>
	<path fill="#E1E1E1" transform="scale(0.236211 0.236211)" d="M225.682 580.978C223.26 580.73 220.846 580.393 218.759 579.047C215.714 577.083 213.999 574.115 213.369 570.584C210.92 556.853 217.789 541.06 225.501 530.101C231.189 522.017 238.62 513.865 248.813 512.131C251.222 512.278 253.023 512.611 255.028 514.029C258.956 516.807 260.656 521.13 261.365 525.744C263.441 539.252 256.515 556.419 248.455 566.988C242.53 574.759 235.487 579.681 225.682 580.978Z"/>
	<path fill="#E1E1E1" transform="scale(0.236211 0.236211)" d="M659.503 586.566C657.602 586.64 655.803 586.787 654.077 585.855C652.054 584.763 650.708 582.963 650.058 580.772C647.365 571.696 653.644 555.381 657.935 547.378C664.769 534.631 675.976 520.471 690.339 516.076C692.897 515.874 695.732 515.952 698.086 517.097C698.819 517.453 699.752 518.172 699.923 519.02C700.532 522.044 685.626 559.359 683.442 563.507C678.032 573.782 670.965 582.959 659.503 586.566Z"/>
	<path fill="#E1E1E1" transform="scale(0.236211 0.236211)" d="M382.887 556.59C384.543 550.382 387.317 544.503 390.576 538.986C396.81 528.434 404.205 519.767 416.443 516.602C417.867 516.582 419.355 516.517 420.741 516.889C422.17 517.273 423.038 517.994 423.705 519.328C424.671 521.262 424.299 523.998 423.609 525.948C419.432 537.744 401.322 548.347 390.764 553.565C388.219 554.748 385.524 555.631 382.887 556.59Z"/>
	<path fill="#E1E1E1" transform="scale(0.236211 0.236211)" d="M766.766 581.548C765.327 580.235 764.025 578.997 763.25 577.173C760.722 571.23 762.324 564.323 764.83 558.642C772.536 541.177 790.313 524.246 808.118 517.42L809.465 517.51L809.998 518.243C810.5 522.85 808.477 530.434 807.995 535.424C807.287 542.759 807.33 550.363 806.226 557.631C805.836 560.202 805.153 562.709 803.932 565.015C799.709 572.99 787.37 580.31 778.91 582.762C774.439 584.057 770.838 583.732 766.766 581.548Z"/>
	<path fill="#E1E1E1" transform="scale(0.236211 0.236211)" d="M892.808 558.22C894.634 550.805 897.639 543.731 901.707 537.268C907.65 527.839 915.84 520.128 926.917 517.6C928.023 517.523 929.059 517.463 930.156 517.664C932.141 518.028 933.51 519.141 934.541 520.834C935.578 522.539 935.752 524.38 935.217 526.285C932.219 536.966 909.638 549.533 899.798 554.985C897.55 556.255 895.183 557.216 892.808 558.22Z"/>
</svg>
