<svg version="1.1" xmlns="http://www.w3.org/2000/svg" style="display: block;" viewBox="0 0 2048 2048" width="512" height="512">
<path transform="translate(0,0)" fill="rgb(0,0,0)" d="M 999.56 366.99 C 1166.88 350.797 1340.3 457.884 1425.68 597.96 C 1438.96 619.751 1451.76 643.732 1459.85 667.958 C 1475.72 667.856 1491.67 667.777 1507.5 669.017 C 1711.81 685.009 1862.16 868.035 1845.41 1070.67 C 1830.99 1245.07 1689.14 1385.23 1516.51 1402.95 C 1492.42 1405.42 1468.09 1404.98 1443.91 1405 L 1254.41 1405.04 C 1223.23 1405.04 1185.3 1411.7 1163.42 1383.91 C 1141.6 1356.19 1155.21 1312.8 1189.26 1302.67 C 1204.62 1298.1 1247.68 1300.97 1265.96 1301 L 1396.78 1300.91 C 1488.77 1301.3 1561.17 1305.43 1639.12 1245.67 C 1753.26 1158.16 1774.33 991.124 1686.17 877.551 C 1622.57 795.613 1541.82 770.563 1443.28 770.54 C 1369.4 770.522 1379.16 744.069 1353.9 687.283 C 1297.59 560.743 1185.66 491.781 1053.25 472.549 C 887.246 471.381 747.361 543.9 684.018 706.47 C 648.283 798.183 653.264 763.991 561.641 769.496 C 409.91 778.614 299.999 909.163 309.338 1059.33 C 316.916 1181.17 417.401 1287.24 539.187 1299.76 C 572.336 1303.17 607.421 1301.04 640.804 1301.03 L 795.901 1301 C 823.49 1300.86 856.232 1295.63 878.233 1315.9 C 909.182 1344.4 892.771 1397.16 850.976 1404.19 C 833.857 1407.07 797.624 1405.07 778.047 1405.05 L 616.886 1405.02 C 584.221 1405.04 551.37 1406.24 518.886 1402.23 C 335.923 1379.65 200.544 1217.27 200.839 1034.69 C 201.176 825.172 379.143 664.376 584.826 664.97 C 656.091 484.482 814.103 387.715 999.56 366.99 z"/>
<path transform="translate(0,0)" fill="rgb(0,0,0)" d="M 1016 860.375 C 1049.91 854.868 1079.19 897.049 1100.27 917.926 L 1211.95 1029.77 C 1236.31 1054.06 1316.84 1121.85 1317.84 1150.66 C 1319.24 1191.43 1268.77 1221.98 1234.36 1197.72 C 1217.83 1186.07 1202.85 1166.47 1188.28 1152.07 C 1135.18 1099.61 1083.35 1045.86 1030.63 993.02 L 1024.53 987.121 C 971.392 1039.4 919.914 1093.85 866.37 1146.43 C 838.176 1174.12 802.972 1229.75 757.204 1196.25 C 734.817 1179.87 725.567 1142.68 743.296 1119.62 C 751.549 1108.89 763.104 1099.25 772.728 1089.62 L 953.985 909.48 C 971.003 892.847 990.648 863.676 1016 860.375 z"/>
<path transform="translate(0,0)" fill="rgb(0,0,0)" d="M 1016 1090.33 C 1037.46 1087.32 1070.71 1103.29 1075.62 1126.08 C 1079.31 1143.23 1077.11 1171.34 1077.12 1189.63 L 1077.17 1586.19 C 1077.31 1622.89 1081.25 1664.79 1035.01 1675.05 C 957.171 1683.4 972.019 1602.07 972.029 1551.73 L 972.022 1228.91 C 972.031 1184.05 955.975 1099.73 1016 1090.33 z"/>
</svg>